# xmcd CD database file
#
# Track frame offsets:
#	150
#	19495
#	42117
#	65852
#	88710
#	110090
#	133630
#	152222
#	166915
#	185252
#	205950
#
# Disc length: 3010 seconds
#
# Revision: 0
# Processed by: cddbd v1.4PL0 Copyright (c) Steve Scherf et al.
# Submitted via: CDex 1.50beta9
#
DISCID=9c0bc00b
DTITLE=Markus and Simon Stockhausen - Clown
DYEAR=1995
DGENRE=Jazz
TTITLE0=Clown
TTITLE1=Circus
TTITLE2=Enchantment
TTITLE3=Nightwise
TTITLE4=Dancing Fifteen
TTITLE5=Sorrow
TTITLE6=Gentle Look
TTITLE7=Higgledy Piggledy
TTITLE8=Pain of Love
TTITLE9=High Hopes
TTITLE10=Weather or Not
EXTD=YEAR: 1995
EXTT0=
EXTT1=
EXTT2=
EXTT3=
EXTT4=
EXTT5=
EXTT6=
EXTT7=
EXTT8=
EXTT9=
EXTT10=
PLAYORDER=
